# xmcd
#
# Track frame offsets: 
#        150
#        17164
#        32671
#        50118
#        65086
#        79410
#        99059
#        119823
#        136371
#        153538
#        169399
#        188175
#        204170
#        221118
#
# Disc length: 3184 seconds
#
# Revision: 0
# Processed by: cddbd v1.5.2PL0 Copyright (c) Steve Scherf et al.
# Submitted via: ExactAudioCopyFreeDBPlugin 1.0
#
DISCID=d10c6e0e
DTITLE=วิสา คัญทัพ - เพลงกวีเพื่อชีวิต
DYEAR=1900
DGENRE=ไทยเพื่อชีวิต
TTITLE0=ร้อยบุปผา
TTITLE1=ออนซอนเด
TTITLE2=กลกามแห่งความรัก
TTITLE3=กำลังใจ
TTITLE4=บินหลา
TTITLE5=สวรรค์บ้านนอก
TTITLE6=ดอกไม้เมืองลาว
TTITLE7=เพลงพิณ
TTITLE8=เดือนแจ้งที่ฝั่งของ
TTITLE9=คนภูเขา
TTITLE10=ซากุระราตรี
TTITLE11=รอยอดีต
TTITLE12=สู้ต่อไป
TTITLE13=พีชาย
EXTD=
EXTT0=
EXTT1=
EXTT2=
EXTT3=
EXTT4=
EXTT5=
EXTT6=
EXTT7=
EXTT8=
EXTT9=
EXTT10=
EXTT11=
EXTT12=
EXTT13=
PLAYORDER=
